# xmcd CD database file
#
# Track frame offsets:
#	150
#	18235
#	36984
#	55071
#
# Disc length: 982 seconds
#
# Revision: 6
# Processed by: cddbd v1.5.2PL0 Copyright (c) Steve Scherf et al.
# Submitted via: CDex 1.70beta2
#
DISCID=2903d404
DTITLE=ゆいかおり - Our Steady Boy
DYEAR=2010
DGENRE=Anime
TTITLE0=Our Steady Boy
TTITLE1=もうひとりの私
TTITLE2=Our Steady Boy (off vocal ver.)
TTITLE3=もうひとりの私 (off vocal ver.)
EXTD=YEAR: 2010
EXTT0=
EXTT1=
EXTT2=
EXTT3=
PLAYORDER=
